# xmcd
#
# Track frame offsets: 
#        150
#        22001
#        40145
#        59066
#        83609
#        101857
#        124871
#        141739
#        170559
#        186971
#        208648
#        222109
#        240300
#        261661
#        275369
#
# Disc length: 3961 seconds
#
# Revision: 3
# Processed by: cddbd v1.5.2PL0 Copyright (c) Steve Scherf et al.
# Submitted via: ExactAudioCopy v1.0b3
#
DISCID=eb0f770f
DTITLE=Rodgers, Paul - Muddy Water Blues
DYEAR=2002
DGENRE=Blues
TTITLE0=Muddy Water Blues (Acoustic Version)
TTITLE1=Louisiana Blues
TTITLE2=I Can't Be Satisfied
TTITLE3=Rollin' Stone
TTITLE4=Good Morning Little School Girl (Part 1)
TTITLE5=I'm Your Hoochie Coochie Man
TTITLE6=She's Alright
TTITLE7=Standing Around Crying
TTITLE8=The Hunter
TTITLE9=She Moves Me
TTITLE10=I'm Ready
TTITLE11=I Just Want To Make Love To You
TTITLE12=Born Under A Bad Sign
TTITLE13=Good Morning Little School Girl (Part 2)
TTITLE14=Muddy Water Blues (Electric Version)
EXTD=Blues\nYEAR: 1993 remaster 2002\nCOUNTRY: U.S.
EXTT0=
EXTT1=
EXTT2=
EXTT3=
EXTT4=
EXTT5=
EXTT6=
EXTT7=
EXTT8=
EXTT9=
EXTT10=
EXTT11=
EXTT12=
EXTT13=
EXTT14=
PLAYORDER=
